<?xml version="1.0" encoding="UTF-8" standalone="no"?><!DOCTYPE svg PUBLIC "-//W3C//DTD SVG 1.1//EN" "http://www.w3.org/Graphics/SVG/1.1/DTD/svg11.dtd"><svg width="100%" height="100%" viewBox="0 0 4500 1250" version="1.1" xmlns="http://www.w3.org/2000/svg" xmlns:xlink="http://www.w3.org/1999/xlink" xml:space="preserve" xmlns:serif="http://www.serif.com/" style="fill-rule:evenodd;clip-rule:evenodd;stroke-linejoin:round;stroke-miterlimit:2;"><g><g><path d="M492.586,624.862c-0.075,92.925 -52.391,177.917 -135.329,219.829l0,316.767l135.329,-0l0,-536.592m0,-246.246l-135.329,0l0,26.417c82.933,41.913 135.254,126.9 135.329,219.825l0,-246.25" style="fill:#0bb7e5;fill-rule:nonzero;"/><path d="M246.336,378.612c-101.846,-0.034 -193.204,62.641 -229.842,157.67c-36.637,95.03 -10.992,202.813 64.529,271.155c75.509,68.341 185.3,83.15 276.221,37.245l0,-219.829c0,61.254 -49.654,110.909 -110.908,110.909c-61.25,-0 -110.909,-49.655 -110.909,-110.909c0,-61.254 49.659,-110.908 110.909,-110.908c61.225,0.079 110.833,49.687 110.908,110.908l0,-219.821c-34.371,-17.412 -72.375,-26.466 -110.908,-26.42" style="fill:#f3732b;fill-rule:nonzero;"/><path d="M357.245,405.038l-0,439.654c82.937,-41.912 135.262,-126.904 135.333,-219.829c-0.071,-92.925 -52.396,-177.912 -135.333,-219.825" style="fill:#0e4924;fill-rule:nonzero;"/><path d="M1014.72,655.07c-0.096,88.18 -53.608,167.505 -135.329,200.613l0,15.742l135.329,-0l0,-216.355" style="fill:#0bb7e5;fill-rule:nonzero;"/><path d="M717.34,378.598l-135.329,-0l-0,276.466c-0,71.921 35.737,139.138 95.362,179.359c59.621,40.216 135.329,48.183 202.021,21.254l0,-200.613c0,44.75 -36.279,81.025 -81.033,81.025c-44.75,0 -81.025,-36.275 -81.025,-81.025l-0,-276.466" style="fill:#fec54e;fill-rule:nonzero;"/><path d="M1014.72,378.598l-135.329,-0l0,477.079c81.721,-33.113 135.233,-112.438 135.329,-200.613l0,-276.466" style="fill:#109349;fill-rule:nonzero;"/><path d="M1593.03,592.11l-136.467,56.392l136.467,-56.392m-27.071,-64.037l0.087,0.196l-0.087,-0.196m-0.434,-1.017l0.08,0.192l-0.08,-0.192m-0.516,-1.179l0.087,0.221l-0.087,-0.221m-0.529,-1.187l0.241,0.541l-0.241,-0.541m-224.871,-145.8c-135.934,0.145 -246.096,110.304 -246.25,246.241c-0,138.079 111.475,246.242 253.796,246.242c73.433,-0 132.329,-23.425 196.825,-78.338l-87.705,-103.062c-39.975,34.004 -71.191,43.404 -111.783,43.404c-20.087,0.725 -39.933,-4.508 -57.058,-15.037l-4.459,1.841l-137.079,56.625c-25.608,-32.179 -42.541,-70.383 -49.187,-110.971l138.9,-57.375l-0,-0.133c4.112,-37.729 27.975,-70.425 62.654,-85.837c12.112,-5.355 25.217,-8.092 38.454,-8.046c23.733,0.033 46.792,7.929 65.554,22.458c0.709,0.6 1.413,1.217 2.109,1.854l136.012,-56.179c9.333,13.15 17.363,27.179 23.963,41.896c-39.613,-88.658 -127.705,-145.696 -224.809,-145.563" style="fill:#b3539f;fill-rule:nonzero;"/><path d="M1404.38,538.727l-83.646,34.55l-80.225,33.133l-4.916,2.03c-6.721,57.562 23.129,89.125 47.633,107.004c1.371,1 2.767,1.966 4.183,2.883l150.579,-62.187l18.563,-7.671c-0.071,-0.317 -16.15,-76.738 -52.175,-109.771m161.646,-10.467l0.425,0.992l26.575,62.858l-26.575,-62.858l-0.425,-0.992m-0.442,-1.021l0.35,0.825l-0.35,-0.825m-0.508,-1.158l0.421,0.963l-0.421,-0.963m-0.379,-0.867l0.283,0.646l-0.283,-0.646m-0.35,-0.75l0.108,0.238l-0.108,-0.238" style="fill:#0bb7e5;fill-rule:nonzero;"/><path d="M1235.61,608.464l-138.9,57.375c6.641,40.583 23.575,78.787 49.187,110.966l137.079,-56.625l4.459,-1.837c-1.425,-0.921 -2.821,-1.883 -4.192,-2.883c-24.504,-17.88 -54.35,-49.438 -47.629,-107.005m304.792,-125.891l-136.017,56.179c36.037,33.004 52.117,109.425 52.183,109.771l136.471,-56.388l-26.575,-62.858l-0.421,-0.992l-0.087,-0.196l-0.35,-0.825l-0.088,-0.191l-0.421,-0.963l-0.083,-0.216l-0.292,-0.646l-0.241,-0.542l-0.1,-0.242c-6.604,-14.712 -14.629,-28.745 -23.963,-41.891" style="fill:#1b4594;fill-rule:nonzero;"/><path d="M2149.18,592.11l-136.471,56.392l136.471,-56.392m-27.071,-64.037l0.083,0.196l-0.083,-0.196m-0.433,-1.017l0.079,0.192l-0.079,-0.192m-0.517,-1.179l0.083,0.221l-0.083,-0.221m-0.529,-1.187l0.237,0.541l-0.237,-0.541m-224.871,-145.8c-135.937,0.145 -246.1,110.304 -246.25,246.241c0,138.079 111.475,246.242 253.796,246.242c73.433,-0 132.325,-23.425 196.825,-78.338l-87.704,-103.062c-39.975,34.004 -71.192,43.404 -111.784,43.404c-20.087,0.725 -39.933,-4.508 -57.062,-15.037l-4.454,1.841l-137.079,56.625c-25.609,-32.179 -42.546,-70.383 -49.188,-110.971l138.9,-57.375l0,-0.133c4.108,-37.729 27.975,-70.425 62.654,-85.837c12.113,-5.355 25.213,-8.092 38.45,-8.046c23.738,0.033 46.792,7.929 65.559,22.458c0.708,0.6 1.412,1.217 2.108,1.854l136.012,-56.179c9.334,13.15 17.359,27.179 23.963,41.896c-39.617,-88.658 -127.704,-145.696 -224.808,-145.563" style="fill:#0bb7e5;fill-rule:nonzero;"/><path d="M1960.53,538.727l-83.646,34.55l-80.225,33.133l-4.916,2.03c-6.721,57.562 23.129,89.125 47.633,107.004c1.371,1 2.767,1.966 4.183,2.883l150.58,-62.187l18.562,-7.671c-0.071,-0.317 -16.146,-76.738 -52.175,-109.771m161.646,-10.467l0.425,0.992l26.579,62.858l-26.579,-62.858l-0.425,-0.992m-0.442,-1.021l0.35,0.825l-0.35,-0.825m-0.508,-1.158l0.421,0.963l-0.421,-0.963m-0.379,-0.867l0.283,0.646l-0.283,-0.646m-0.346,-0.75l0.104,0.238l-0.104,-0.238" style="fill:#fec54e;fill-rule:nonzero;"/><path d="M1791.75,608.464l-138.9,57.375c6.642,40.583 23.575,78.787 49.188,110.966l137.079,-56.625l4.454,-1.837c-1.421,-0.921 -2.817,-1.883 -4.188,-2.883c-24.504,-17.88 -54.35,-49.438 -47.629,-107.005m304.788,-125.891l-136.013,56.179c36.034,33.004 52.113,109.425 52.184,109.771l136.466,-56.388l-26.575,-62.858l-0.421,-0.992l-0.083,-0.196l-0.354,-0.825l-0.083,-0.191l-0.421,-0.963l-0.088,-0.216l-0.291,-0.646l-0.238,-0.542l-0.1,-0.242c-6.604,-14.712 -14.629,-28.745 -23.962,-41.891" style="fill:#109349;fill-rule:nonzero;"/><path d="M2352.07,378.551l-135.333,-0l-0,492.829l-0,-309.534c0.041,-82.766 55.475,-155.258 135.333,-176.995l-0,-6.305" style="fill:#b3539f;fill-rule:nonzero;"/><path d="M2400.04,378.551c-16.191,-0.013 -32.325,2.108 -47.962,6.308l-0,176.987c-0,-19.4 11.683,-36.895 29.612,-44.316c17.921,-7.421 38.563,-3.313 52.275,10.408l95.675,-95.721c-34.3,-34.475 -80.962,-53.804 -129.591,-53.675" style="fill:#0bb7e5;fill-rule:nonzero;"/><path d="M2352.07,384.851c-79.858,21.734 -135.292,94.229 -135.333,176.996l-0,309.525l135.333,0l-0,-486.521" style="fill:#1b4594;fill-rule:nonzero;"/><path d="M2732.56,88.542l-135.329,0l-0,782.821l135.329,-0l-0,-26.408c-82.992,-41.855 -135.338,-126.88 -135.338,-219.83c0,-92.945 52.346,-177.97 135.338,-219.825l-0,-316.758" style="fill:#b3539f;fill-rule:nonzero;"/><path d="M2843.46,736.03c-61.254,-0 -110.909,-49.655 -110.909,-110.905c0,-61.254 49.655,-110.908 110.909,-110.908c61.254,0 110.908,49.654 110.908,110.908c-0.071,61.221 -49.683,110.834 -110.908,110.905m-0,-357.134c-38.534,-0.05 -76.534,9 -110.909,26.413l0,439.654c90.909,45.858 200.667,31.037 276.15,-37.3c75.488,-68.329 101.125,-176.075 64.509,-271.083c-36.613,-95.009 -127.929,-157.68 -229.75,-157.684" style="fill:#fec54e;fill-rule:nonzero;"/><path d="M2732.56,405.302c-82.992,41.854 -135.338,126.879 -135.338,219.825c0,92.95 52.346,177.971 135.338,219.825l-0,-439.65" style="fill:#df383b;fill-rule:nonzero;"/><path d="M3656.42,592.155l-136.467,56.392l136.467,-56.392m-27.067,-64.037l0.084,0.196l-0.084,-0.196m-0.437,-1.013l0.083,0.188l-0.083,-0.188m-0.517,-1.183l0.088,0.221l-0.088,-0.221m-0.529,-1.187l0.242,0.541l-0.242,-0.541m-224.871,-145.8c-135.933,0.15 -246.096,110.308 -246.25,246.241c0,138.079 111.475,246.242 253.796,246.242c73.433,-0 132.325,-23.425 196.829,-78.338l-87.704,-103.062c-39.975,34.008 -71.192,43.404 -111.788,43.404c-20.087,0.725 -39.929,-4.504 -57.058,-15.037l-4.458,1.845l-137.079,56.621c-25.605,-32.179 -42.542,-70.383 -49.184,-110.971l138.9,-57.375l0,-0.133c4.109,-37.729 27.975,-70.421 62.654,-85.837c12.109,-5.355 25.213,-8.092 38.45,-8.046c23.738,0.033 46.792,7.929 65.559,22.458c0.704,0.6 1.412,1.221 2.104,1.854l136.012,-56.179c9.334,13.15 17.363,27.183 23.963,41.896c-39.613,-88.658 -127.7,-145.696 -224.808,-145.563" style="fill:#f3732b;fill-rule:nonzero;"/><path d="M3467.77,538.774l-83.641,34.55l-80.225,33.133l-4.921,2.029c-6.717,57.563 23.133,89.129 47.637,107.004c1.371,1.005 2.767,1.963 4.184,2.88l150.575,-62.188l18.562,-7.667c-0.067,-0.316 -16.146,-76.737 -52.175,-109.77m161.65,-10.467l0.421,0.992l26.579,62.854l-26.579,-62.854l-0.421,-0.992m-0.446,-1.025l0.354,0.829l-0.354,-0.829m-0.508,-1.154l0.425,0.958l-0.425,-0.958m-0.375,-0.867l0.283,0.646l-0.283,-0.646m-0.35,-0.754l0.108,0.242l-0.108,-0.242" style="fill:#b3539f;fill-rule:nonzero;"/><path d="M3299,608.509l-138.9,57.375c6.645,40.583 23.575,78.787 49.191,110.966l137.075,-56.62l4.459,-1.842c-1.421,-0.921 -2.817,-1.879 -4.188,-2.883c-24.504,-17.88 -54.35,-49.434 -47.629,-107.005m304.787,-125.891l-136.012,56.179c36.033,33.004 52.112,109.425 52.179,109.771l136.471,-56.388l-26.575,-62.854l-0.421,-0.996l-0.087,-0.196l-0.35,-0.825l-0.084,-0.191l-0.425,-0.959l-0.083,-0.216l-0.292,-0.65l-0.237,-0.542l-0.104,-0.242c-6.605,-14.708 -14.625,-28.741 -23.963,-41.891" style="fill:#e12626;fill-rule:nonzero;"/><path d="M4212.66,592.11l-136.47,56.392l136.47,-56.392m-27.07,-64.037l0.083,0.196l-0.083,-0.196m-0.434,-1.017l0.079,0.192l-0.079,-0.192m-0.516,-1.179l0.087,0.221l-0.087,-0.221m-0.53,-1.187l0.238,0.541l-0.238,-0.541m-224.87,-145.8c-135.934,0.145 -246.1,110.304 -246.255,246.241c0,138.079 111.48,246.242 253.8,246.242c73.434,-0 132.325,-23.425 196.825,-78.338l-87.704,-103.062c-39.971,34.004 -71.191,43.404 -111.783,43.404c-20.088,0.725 -39.933,-4.508 -57.063,-15.037l-4.454,1.841l-137.079,56.625c-25.608,-32.179 -42.542,-70.383 -49.187,-110.971l138.9,-57.375l-0,-0.133c4.108,-37.729 27.975,-70.425 62.654,-85.837c12.112,-5.355 25.216,-8.092 38.45,-8.046c23.737,0.033 46.796,7.929 65.562,22.458c0.704,0.6 1.409,1.217 2.104,1.854l136.013,-56.179c9.333,13.15 17.358,27.179 23.962,41.896c-39.616,-88.658 -127.704,-145.696 -224.812,-145.563" style="fill:#0bb7e5;fill-rule:nonzero;"/><path d="M4024.01,538.727l-83.642,34.55l-80.225,33.133l-4.92,2.03c-6.721,57.562 23.133,89.125 47.637,107.004c1.371,1 2.763,1.966 4.183,2.883l150.575,-62.187l18.563,-7.671c-0.067,-0.317 -16.146,-76.738 -52.175,-109.771m161.65,-10.467l0.421,0.992l26.575,62.858l-26.575,-62.858l-0.421,-0.992m-0.446,-1.021l0.35,0.825l-0.35,-0.825m-0.508,-1.158l0.425,0.963l-0.425,-0.963m-0.379,-0.867l0.283,0.646l-0.283,-0.646m-0.346,-0.75l0.108,0.238l-0.108,-0.238" style="fill:#fec54e;fill-rule:nonzero;"/><path d="M3855.24,608.464l-138.9,57.375c6.641,40.583 23.575,78.787 49.187,110.966l137.079,-56.625l4.459,-1.837c-1.425,-0.921 -2.821,-1.883 -4.192,-2.883c-24.5,-17.88 -54.35,-49.438 -47.629,-107.005m304.787,-125.891l-136.012,56.179c36.033,33.004 52.116,109.425 52.183,109.771l136.467,-56.388l-26.575,-62.858l-0.417,-0.992l-0.087,-0.196l-0.355,-0.825l-0.083,-0.191l-0.421,-0.963l-0.083,-0.216l-0.296,-0.646l-0.233,-0.542l-0.109,-0.242c-6.6,-14.712 -14.625,-28.745 -23.962,-41.891" style="fill:#109349;fill-rule:nonzero;"/><path d="M4432.53,513.933l-135.334,-0l0,224.691c0.084,73.113 59.334,132.363 132.45,132.442l67.667,0l-0,-135.333l-64.783,-0l-0,-221.8m-0,-425.292l-135.334,0l0,289.95l135.334,0l-0,-289.95" style="fill:#fec54e;fill-rule:nonzero;"/><path d="M4297.2,378.597l-39.263,0l0,135.333l39.263,0l-0,-135.333Zm200.116,0l-64.782,0l-0,135.333l64.782,0l0,-135.333Z" style="fill:#b3539f;fill-rule:nonzero;"/><rect x="4297.2" y="378.597" width="135.333" height="135.342" style="fill:#df383b;fill-rule:nonzero;"/></g></g></svg>